<?xml version="1.0" encoding="UTF-8"?>
<svg id="Layer_2" data-name="Layer 2" xmlns="http://www.w3.org/2000/svg" viewBox="0 0 733.43 585.39">
  <defs>
    <style>
      .cls-1 {
        fill: #192d32;
        stroke-width: 0px;
      }
    </style>
  </defs>
  <g id="Layer_1-2" data-name="Layer 1">
    <g>
      <path class="cls-1" d="M45.19,585.39c-2.97-.59-5.98-1.04-8.91-1.8-10.3-2.65-18.77-8.24-25.44-16.47C3.54,558.11-.13,547.66,0,536.13c.16-13.55,5.29-25.17,14.9-34.78,21.46-21.47,42.92-42.94,64.38-64.4,30.85-30.85,61.7-61.7,92.54-92.55,16.79-16.8,33.59-33.59,50.38-50.39.36-.36.69-.73,1.18-1.24-.38-.45-.7-.89-1.08-1.27-40.14-40.15-80.28-80.3-120.43-120.44-28.69-28.69-57.37-57.41-86.09-86.07-7.22-7.21-12.42-15.5-14.6-25.58C-1.15,48.6-.06,38.17,4.65,28.22,10.62,15.59,20.32,6.93,33.59,2.57c13.91-4.58,27.28-2.96,39.99,4.29,6.9,3.94,12.11,9.8,17.63,15.31,28.35,28.32,56.68,56.66,85.01,85,29.59,29.59,59.18,59.19,88.76,88.78,20.47,20.48,40.94,40.96,61.42,61.43,8.48,8.47,13.7,18.62,14.78,30.56,1.26,13.99-2.46,26.73-12.14,37.05-10.63,11.35-21.81,22.18-32.8,33.19-26.34,26.38-52.71,52.72-79.07,79.08-26.45,26.45-52.89,52.9-79.34,79.35-17.74,17.74-35.48,35.47-53.2,53.22-8.69,8.71-18.97,14.09-31.32,15.28-.3.03-.59.19-.88.28h-7.24Z"/>
      <path class="cls-1" d="M388.11,585.39c-3.03-.62-6.1-1.07-9.07-1.88-12.1-3.28-21.52-10.31-28.31-20.82-5.12-7.93-7.71-16.72-7.64-26.12.11-14.14,5.3-26.26,15.72-35.91,9.39-8.7,20.63-12.95,33.44-12.95,97.3,0,194.61-.02,291.91,0,21.7,0,40.21,13.46,46.8,34.14,1.22,3.82,1.48,7.95,2.19,11.94.1.55.2,1.1.3,1.66v2.29c-.1.35-.26.71-.28,1.06-.49,10.12-3.77,19.23-9.93,27.26-6.71,8.74-15.38,14.65-26.06,17.47-2.99.79-6.06,1.24-9.09,1.85h-299.97Z"/>
    </g>
  </g>
</svg>